<svg xmlns="http://www.w3.org/2000/svg" width="112.06" height="40.152" viewBox="0 0 112.06 40.152"><defs><style>.a{fill:#e21925;}.b{fill:#b21a22;}.c{fill:#fff;}.d{fill:#1a2128;}.e{fill:#8e8e8e;font-size:5px;font-family:MyriadPro-Regular, Myriad Pro;}</style></defs><g transform="translate(-370.11 -102.018)"><g transform="translate(370.11 102.188)"><path class="a" d="M466.1,168.1l.474,4.5-4.85-3.98Z" transform="translate(-419.737 -137.987)"/><g transform="translate(0 0)"><path class="a" d="M1.239,0H42.191A1.239,1.239,0,0,1,43.43,1.239V30.345a0,0,0,0,1,0,0H10a10,10,0,0,1-10-10V1.239A1.239,1.239,0,0,1,1.239,0Z" transform="translate(0 4.546) rotate(-6.009)"/><path class="b" d="M446.48,168.971a3.306,3.306,0,0,1,3.634,2.942l.674,4.96a1.406,1.406,0,0,1-2.209,1.295l-17.015-7.626Z" transform="translate(-403.4 -138.447)"/></g></g><g transform="translate(381.999 110.458)"><path class="c" d="M403.817,123.169a.661.661,0,0,1,.184.485l.786,8.623.849-.077a.657.657,0,0,1,.511.093.891.891,0,0,1,.166.531l.079.872a.884.884,0,0,1-.067.552.658.658,0,0,1-.486.184l-.849.077.2,2.188a.658.658,0,0,1-.093.511.888.888,0,0,1-.531.167l-1.083.1a.884.884,0,0,1-.552-.068.655.655,0,0,1-.184-.485l-.2-2.188-5.671.517a.66.66,0,0,1-.511-.093.885.885,0,0,1-.167-.531l-.136-1.487a2.563,2.563,0,0,1,0-.482,1.14,1.14,0,0,1,.17-.476l4.644-8.262a2.824,2.824,0,0,1,.349-.513.671.671,0,0,1,.425-.158l1.615-.147A.887.887,0,0,1,403.817,123.169Zm-2.017,3.363-3.6,6.346,4.142-.378Z" transform="translate(-396.051 -121.874)"/><path class="c" d="M422.264,135.926a.89.89,0,0,1-.531.167l-1.168.107a.887.887,0,0,1-.552-.068.659.659,0,0,1-.184-.485l-1.036-11.364-2.166.2a.662.662,0,0,1-.511-.091.892.892,0,0,1-.166-.533l-.085-.934a.883.883,0,0,1,.067-.552.658.658,0,0,1,.486-.184l4.014-.366a.889.889,0,0,1,.553.068.658.658,0,0,1,.183.485l1.189,13.042A.657.657,0,0,1,422.264,135.926Z" transform="translate(-406.778 -121.18)"/><path class="c" d="M437.358,134.55a.888.888,0,0,1-.531.167l-1.168.107a.891.891,0,0,1-.552-.068.661.661,0,0,1-.184-.486l-1.036-11.364-2.166.2a.661.661,0,0,1-.511-.091.9.9,0,0,1-.166-.533l-.085-.934a.885.885,0,0,1,.067-.552.659.659,0,0,1,.486-.184l4.014-.366a.888.888,0,0,1,.553.068.659.659,0,0,1,.183.485l1.189,13.042A.657.657,0,0,1,437.358,134.55Z" transform="translate(-414.955 -120.434)"/></g><g transform="translate(420.435 111.893)"><path class="d" d="M488.4,135.951a.692.692,0,0,1-.426.092H487a.7.7,0,0,1-.426-.092.515.515,0,0,1-.109-.392v-4.845h-4.511v4.845a.515.515,0,0,1-.109.392.7.7,0,0,1-.426.092h-.969a.693.693,0,0,1-.426-.092.515.515,0,0,1-.109-.392V124.633a.515.515,0,0,1,.109-.393.693.693,0,0,1,.426-.092h.969a.7.7,0,0,1,.426.092.516.516,0,0,1,.109.393v4.277h4.511v-4.277a.516.516,0,0,1,.109-.393.7.7,0,0,1,.426-.092h.969a.692.692,0,0,1,.426.092.514.514,0,0,1,.109.393v10.926A.513.513,0,0,1,488.4,135.951Z" transform="translate(-479.919 -123.881)"/><path class="d" d="M510.119,124.142a3.482,3.482,0,0,1,1.495,1.7,3.99,3.99,0,0,1,.3,1.086,11.756,11.756,0,0,1,.083,1.554v2.439a10.522,10.522,0,0,1-.092,1.5,5.288,5.288,0,0,1-.293,1.144,3.661,3.661,0,0,1-1.495,1.821,4.7,4.7,0,0,1-2.5.618,4.978,4.978,0,0,1-2.5-.576,3.486,3.486,0,0,1-1.495-1.7,3.976,3.976,0,0,1-.3-1.086,11.672,11.672,0,0,1-.084-1.554v-2.439a10.453,10.453,0,0,1,.092-1.5,5.3,5.3,0,0,1,.292-1.144,3.665,3.665,0,0,1,1.495-1.821,4.707,4.707,0,0,1,2.5-.618A4.975,4.975,0,0,1,510.119,124.142Zm-4.26,1.913a3.946,3.946,0,0,0-.526,2.322v2.807a3.948,3.948,0,0,0,.526,2.322,2.565,2.565,0,0,0,3.525,0,3.948,3.948,0,0,0,.526-2.322v-2.807a3.946,3.946,0,0,0-.526-2.322,2.564,2.564,0,0,0-3.525,0Z" transform="translate(-492.554 -123.565)"/><path class="d" d="M524.794,125.952a.516.516,0,0,1-.393-.109.7.7,0,0,1-.092-.426v-.735a.7.7,0,0,1,.092-.426.516.516,0,0,1,.393-.109h7.885a.517.517,0,0,1,.393.109.7.7,0,0,1,.092.426v.735a.7.7,0,0,1-.092.426.517.517,0,0,1-.393.109h-2.924v9.606a.515.515,0,0,1-.109.392.693.693,0,0,1-.426.092h-.969a.7.7,0,0,1-.426-.092.515.515,0,0,1-.109-.392v-9.606Z" transform="translate(-503.966 -123.881)"/><path class="d" d="M553.853,135.934a.514.514,0,0,1-.392.109h-5.947a.7.7,0,0,1-.426-.092.517.517,0,0,1-.109-.392V124.633a.517.517,0,0,1,.109-.393.7.7,0,0,1,.426-.092h.969a.693.693,0,0,1,.426.092.514.514,0,0,1,.109.393v9.606h4.444a.514.514,0,0,1,.392.109.7.7,0,0,1,.092.426v.735A.694.694,0,0,1,553.853,135.934Z" transform="translate(-516.246 -123.881)"/><path class="d" d="M567.642,135.951a.7.7,0,0,1-.426.092h-.969a.7.7,0,0,1-.426-.092.515.515,0,0,1-.108-.392V124.633a.516.516,0,0,1,.108-.393.7.7,0,0,1,.426-.092h.969a.7.7,0,0,1,.426.092.516.516,0,0,1,.109.393v10.926A.515.515,0,0,1,567.642,135.951Z" transform="translate(-526.394 -123.881)"/><path class="d" d="M577.4,135.559a.515.515,0,0,1-.109.392.7.7,0,0,1-.426.092h-.919a.694.694,0,0,1-.426-.092.515.515,0,0,1-.109-.392V124.633a.516.516,0,0,1,.109-.393.694.694,0,0,1,.426-.092h.969a1.035,1.035,0,0,1,.46.076.935.935,0,0,1,.309.392l3.993,7.568v-7.551a.518.518,0,0,1,.108-.393.7.7,0,0,1,.426-.092h.919a.7.7,0,0,1,.426.092.516.516,0,0,1,.109.393v10.926a.515.515,0,0,1-.109.392.7.7,0,0,1-.426.092h-.969a1.039,1.039,0,0,1-.459-.075.934.934,0,0,1-.309-.392l-3.993-7.568Z" transform="translate(-531.645 -123.881)"/><path class="d" d="M605.885,135.934a.517.517,0,0,1-.393.109h-6.3a.693.693,0,0,1-.426-.092.515.515,0,0,1-.109-.392V124.633a.516.516,0,0,1,.109-.393.693.693,0,0,1,.426-.092h6.232a.516.516,0,0,1,.392.109.7.7,0,0,1,.092.426v.735a.7.7,0,0,1-.092.426.516.516,0,0,1-.392.109H600.7v3.074h4.294a.516.516,0,0,1,.392.109.7.7,0,0,1,.092.426v.735a.7.7,0,0,1-.092.426.516.516,0,0,1-.392.108H600.7v3.408h4.795a.517.517,0,0,1,.393.109.7.7,0,0,1,.092.426v.735A.7.7,0,0,1,605.885,135.934Z" transform="translate(-544.241 -123.881)"/></g><text class="e" transform="translate(416.358 106.018)"><tspan x="0" y="0">™</tspan></text></g></svg>