<svg xmlns="http://www.w3.org/2000/svg" width="47.396" height="39.983" viewBox="0 0 47.396 39.983"><defs><style>.a{fill:#e21925;}.b{fill:#b21a22;}.c{fill:#fff;}</style></defs><g transform="translate(-140 -17.899)"><g transform="translate(140 17.899)"><path class="a" d="M466.1,168.1l.474,4.5-4.85-3.98Z" transform="translate(-419.737 -137.987)"/><g transform="translate(0 0)"><path class="a" d="M1.239,0H42.191A1.239,1.239,0,0,1,43.43,1.239V30.345a0,0,0,0,1,0,0H10a10,10,0,0,1-10-10V1.239A1.239,1.239,0,0,1,1.239,0Z" transform="translate(0 4.546) rotate(-6.009)"/><path class="b" d="M446.48,168.971a3.306,3.306,0,0,1,3.634,2.942l.674,4.96a1.406,1.406,0,0,1-2.209,1.295l-17.015-7.626Z" transform="translate(-403.4 -138.447)"/></g></g><g transform="translate(151.889 26.17)"><path class="c" d="M403.817,123.169a.661.661,0,0,1,.184.485l.786,8.623.849-.077a.657.657,0,0,1,.511.093.891.891,0,0,1,.166.531l.079.872a.884.884,0,0,1-.067.552.658.658,0,0,1-.486.184l-.849.077.2,2.188a.658.658,0,0,1-.093.511.888.888,0,0,1-.531.167l-1.083.1a.884.884,0,0,1-.552-.068.655.655,0,0,1-.184-.485l-.2-2.188-5.671.517a.66.66,0,0,1-.511-.093.885.885,0,0,1-.167-.531l-.136-1.487a2.563,2.563,0,0,1,0-.482,1.14,1.14,0,0,1,.17-.476l4.644-8.262a2.824,2.824,0,0,1,.349-.513.671.671,0,0,1,.425-.158l1.615-.147A.887.887,0,0,1,403.817,123.169Zm-2.017,3.363-3.6,6.346,4.142-.378Z" transform="translate(-396.051 -121.874)"/><path class="c" d="M422.264,135.926a.89.89,0,0,1-.531.167l-1.168.107a.887.887,0,0,1-.552-.068.659.659,0,0,1-.184-.485l-1.036-11.364-2.166.2a.662.662,0,0,1-.511-.091.892.892,0,0,1-.166-.533l-.085-.934a.883.883,0,0,1,.067-.552.658.658,0,0,1,.486-.184l4.014-.366a.889.889,0,0,1,.553.068.658.658,0,0,1,.183.485l1.189,13.042A.657.657,0,0,1,422.264,135.926Z" transform="translate(-406.778 -121.18)"/><path class="c" d="M437.358,134.55a.888.888,0,0,1-.531.167l-1.168.107a.891.891,0,0,1-.552-.068.661.661,0,0,1-.184-.486l-1.036-11.364-2.166.2a.661.661,0,0,1-.511-.091.9.9,0,0,1-.166-.533l-.085-.934a.885.885,0,0,1,.067-.552.659.659,0,0,1,.486-.184l4.014-.366a.888.888,0,0,1,.553.068.659.659,0,0,1,.183.485l1.189,13.042A.657.657,0,0,1,437.358,134.55Z" transform="translate(-414.955 -120.434)"/></g></g></svg>