<svg xmlns="http://www.w3.org/2000/svg" width="107.06" height="32.802" viewBox="0 0 107.06 32.802"><defs><style>.a{fill:#fff;}.b{fill:#f5f5f5;}.c{fill:#a6a6a6;}.d{fill:#e21925;}.e{fill:#fcfdfe;font-size:5px;font-family:MyriadPro-Regular, Myriad Pro;}</style></defs><g transform="translate(-375.11 -102.288)"><g transform="translate(420.435 111.893)"><path class="a" d="M488.4,135.951a.692.692,0,0,1-.426.092H487a.7.7,0,0,1-.426-.092.515.515,0,0,1-.109-.392v-4.845h-4.511v4.845a.515.515,0,0,1-.109.392.7.7,0,0,1-.426.092h-.969a.693.693,0,0,1-.426-.092.515.515,0,0,1-.109-.392V124.633a.515.515,0,0,1,.109-.393.693.693,0,0,1,.426-.092h.969a.7.7,0,0,1,.426.092.516.516,0,0,1,.109.393v4.277h4.511v-4.277a.516.516,0,0,1,.109-.393.7.7,0,0,1,.426-.092h.969a.692.692,0,0,1,.426.092.514.514,0,0,1,.109.393v10.926A.513.513,0,0,1,488.4,135.951Z" transform="translate(-479.919 -123.881)"/><path class="a" d="M510.119,124.142a3.482,3.482,0,0,1,1.495,1.7,3.99,3.99,0,0,1,.3,1.086,11.756,11.756,0,0,1,.083,1.554v2.439a10.522,10.522,0,0,1-.092,1.5,5.288,5.288,0,0,1-.293,1.144,3.661,3.661,0,0,1-1.495,1.821,4.7,4.7,0,0,1-2.5.618,4.978,4.978,0,0,1-2.5-.576,3.486,3.486,0,0,1-1.495-1.7,3.976,3.976,0,0,1-.3-1.086,11.672,11.672,0,0,1-.084-1.554v-2.439a10.453,10.453,0,0,1,.092-1.5,5.3,5.3,0,0,1,.292-1.144,3.665,3.665,0,0,1,1.495-1.821,4.707,4.707,0,0,1,2.5-.618A4.975,4.975,0,0,1,510.119,124.142Zm-4.26,1.913a3.946,3.946,0,0,0-.526,2.322v2.807a3.948,3.948,0,0,0,.526,2.322,2.565,2.565,0,0,0,3.525,0,3.948,3.948,0,0,0,.526-2.322v-2.807a3.946,3.946,0,0,0-.526-2.322,2.564,2.564,0,0,0-3.525,0Z" transform="translate(-492.554 -123.565)"/><path class="a" d="M524.794,125.952a.516.516,0,0,1-.393-.109.7.7,0,0,1-.092-.426v-.735a.7.7,0,0,1,.092-.426.516.516,0,0,1,.393-.109h7.885a.517.517,0,0,1,.393.109.7.7,0,0,1,.092.426v.735a.7.7,0,0,1-.092.426.517.517,0,0,1-.393.109h-2.924v9.606a.515.515,0,0,1-.109.392.693.693,0,0,1-.426.092h-.969a.7.7,0,0,1-.426-.092.515.515,0,0,1-.109-.392v-9.606Z" transform="translate(-503.966 -123.881)"/><path class="a" d="M553.853,135.934a.514.514,0,0,1-.392.109h-5.947a.7.7,0,0,1-.426-.092.517.517,0,0,1-.109-.392V124.633a.517.517,0,0,1,.109-.393.7.7,0,0,1,.426-.092h.969a.693.693,0,0,1,.426.092.514.514,0,0,1,.109.393v9.606h4.444a.514.514,0,0,1,.392.109.7.7,0,0,1,.092.426v.735A.694.694,0,0,1,553.853,135.934Z" transform="translate(-516.246 -123.881)"/><path class="a" d="M567.642,135.951a.7.7,0,0,1-.426.092h-.969a.7.7,0,0,1-.426-.092.515.515,0,0,1-.108-.392V124.633a.516.516,0,0,1,.108-.393.7.7,0,0,1,.426-.092h.969a.7.7,0,0,1,.426.092.516.516,0,0,1,.109.393v10.926A.515.515,0,0,1,567.642,135.951Z" transform="translate(-526.394 -123.881)"/><path class="a" d="M577.4,135.559a.515.515,0,0,1-.109.392.7.7,0,0,1-.426.092h-.919a.694.694,0,0,1-.426-.092.515.515,0,0,1-.109-.392V124.633a.516.516,0,0,1,.109-.393.694.694,0,0,1,.426-.092h.969a1.035,1.035,0,0,1,.46.076.935.935,0,0,1,.309.392l3.993,7.568v-7.551a.518.518,0,0,1,.108-.393.7.7,0,0,1,.426-.092h.919a.7.7,0,0,1,.426.092.516.516,0,0,1,.109.393v10.926a.515.515,0,0,1-.109.392.7.7,0,0,1-.426.092h-.969a1.039,1.039,0,0,1-.459-.075.934.934,0,0,1-.309-.392l-3.993-7.568Z" transform="translate(-531.645 -123.881)"/><path class="a" d="M605.885,135.934a.517.517,0,0,1-.393.109h-6.3a.693.693,0,0,1-.426-.092.515.515,0,0,1-.109-.392V124.633a.516.516,0,0,1,.109-.393.693.693,0,0,1,.426-.092h6.232a.516.516,0,0,1,.392.109.7.7,0,0,1,.092.426v.735a.7.7,0,0,1-.092.426.516.516,0,0,1-.392.109H600.7v3.074h4.294a.516.516,0,0,1,.392.109.7.7,0,0,1,.092.426v.735a.7.7,0,0,1-.092.426.516.516,0,0,1-.392.108H600.7v3.408h4.795a.517.517,0,0,1,.393.109.7.7,0,0,1,.092.426v.735A.7.7,0,0,1,605.885,135.934Z" transform="translate(-544.241 -123.881)"/></g><g transform="translate(163.998 -911.635)"><g transform="translate(211.112 1014.061)"><path class="b" d="M306.3,1080.009l.387,3.675-3.962-3.252Z" transform="translate(-268.424 -1055.405)"/><path class="b" d="M1.239,0h33A1.239,1.239,0,0,1,35.48,1.239V24.79a0,0,0,0,1,0,0H10a10,10,0,0,1-10-10V1.239A1.239,1.239,0,0,1,1.239,0Z" transform="translate(0 3.714) rotate(-6.009)"/><path class="c" d="M284.752,1080.873a2.7,2.7,0,0,1,2.969,2.4l.551,4.053a1.148,1.148,0,0,1-1.8,1.057l-13.9-6.23Z" transform="translate(-249.558 -1055.936)"/></g><g transform="translate(220.824 1020.818)"><path class="d" d="M243.4,1035.06a.535.535,0,0,1,.15.4l.642,7.045.694-.063a.539.539,0,0,1,.418.076.726.726,0,0,1,.136.434l.065.712a.73.73,0,0,1-.055.451.54.54,0,0,1-.4.15l-.694.063.163,1.787a.536.536,0,0,1-.076.417.722.722,0,0,1-.434.136l-.885.081a.725.725,0,0,1-.451-.056.534.534,0,0,1-.15-.4l-.163-1.787-4.633.422a.537.537,0,0,1-.418-.076.719.719,0,0,1-.136-.433l-.111-1.215a2.09,2.09,0,0,1,0-.393.937.937,0,0,1,.139-.389l3.794-6.75a2.336,2.336,0,0,1,.285-.419.549.549,0,0,1,.347-.128l1.319-.12A.72.72,0,0,1,243.4,1035.06Zm-1.648,2.747-2.939,5.184,3.384-.309Z" transform="translate(-237.053 -1034.001)"/><path class="d" d="M262.093,1045.247a.727.727,0,0,1-.434.136l-.954.087a.725.725,0,0,1-.451-.055.538.538,0,0,1-.15-.4l-.846-9.284-1.77.161a.538.538,0,0,1-.418-.075.733.733,0,0,1-.136-.435l-.069-.763a.722.722,0,0,1,.055-.451.538.538,0,0,1,.4-.15l3.279-.3a.728.728,0,0,1,.452.055.537.537,0,0,1,.149.4l.972,10.654A.539.539,0,0,1,262.093,1045.247Z" transform="translate(-249.441 -1033.2)"/><path class="d" d="M277.187,1043.87a.727.727,0,0,1-.434.137l-.954.087a.722.722,0,0,1-.451-.056.535.535,0,0,1-.15-.4l-.846-9.284-1.77.161a.539.539,0,0,1-.418-.075.73.73,0,0,1-.136-.435l-.07-.763a.722.722,0,0,1,.055-.451.539.539,0,0,1,.4-.15l3.279-.3a.73.73,0,0,1,.452.056.538.538,0,0,1,.149.4l.972,10.654A.536.536,0,0,1,277.187,1043.87Z" transform="translate(-258.884 -1032.339)"/></g><text class="e" transform="translate(248.894 1017.923)"><tspan x="0" y="0">™</tspan></text></g></g></svg>