<svg xmlns="http://www.w3.org/2000/svg" width="355" height="727" viewBox="0 0 355 727"><defs><style>.a,.b,.c,.d{fill:#fbfbfb;}.a,.d,.e{stroke:#eb3232;}.d,.e{stroke-width:0.75px;}.e,.g{fill:none;}.e{stroke-miterlimit:10;}.f,.h{stroke:none;}.h{fill:#eb3232;}</style></defs><g transform="translate(-924 -289)"><g class="a" transform="translate(924 289)"><rect class="f" width="355" height="727" rx="45"/><rect class="g" x="0.5" y="0.5" width="354" height="726" rx="44.5"/></g><g class="b" transform="translate(937 300)"><path class="f" d="M 295.000244140625 700.5001220703125 L 35.00006103515625 700.5001220703125 C 30.3424243927002 700.5001220703125 25.82442474365234 699.5880737304688 21.57160758972168 697.7891235351563 C 17.46333503723145 696.051513671875 13.77369785308838 693.5639038085938 10.60506153106689 690.3954467773438 C 7.43642520904541 687.2266845703125 4.948698043823242 683.5370483398438 3.21115255355835 679.4288940429688 C 1.412152528762817 675.1759643554688 0.4999707639217377 670.6577758789063 0.4999707639217377 666 L 0.4999707639217377 35.00006103515625 C 0.4999707639217377 30.34224319458008 1.412152528762817 25.82415199279785 3.211061716079712 21.57124328613281 C 4.948698043823242 17.46306037902832 7.43642520904541 13.77342510223389 10.60506153106689 10.60469722747803 C 13.77369785308838 7.436243057250977 17.46333503723145 4.948606491088867 21.57160758972168 3.210879325866699 C 25.82442474365234 1.412060976028442 30.3424243927002 0.4999701380729675 35.00006103515625 0.4999701380729675 L 69.49928283691406 0.4999701380729675 L 69.500244140625 13.5846061706543 C 69.500244140625 23.23415184020996 77.35079193115234 31.08469772338867 87.00033569335938 31.08469772338867 L 242.9999694824219 31.08469772338867 C 252.6495208740234 31.08469772338867 260.5000610351563 23.23415184020996 260.5000610351563 13.5846061706543 L 260.5000610351563 0.5009558200836182 L 295.000244140625 0.4999701380729675 C 299.6580505371094 0.4999701380729675 304.1762390136719 1.412060976028442 308.4290466308594 3.210970163345337 C 312.5371398925781 4.948424816131592 316.2267761230469 7.436060905456543 319.3955993652344 10.60469722747803 C 322.5642395019531 13.77351570129395 325.0518798828125 17.4631519317627 326.7893371582031 21.57124328613281 C 328.5882568359375 25.82406044006348 329.5003356933594 30.34224319458008 329.5003356933594 35.00006103515625 L 329.5003356933594 666 C 329.5003356933594 670.6577758789063 328.5882568359375 675.1759643554688 326.7893371582031 679.4288940429688 C 325.0516967773438 683.5371704101563 322.5640563964844 687.226806640625 319.3955993652344 690.3954467773438 C 316.2267761230469 693.5640869140625 312.5371398925781 696.0516967773438 308.4290466308594 697.7891235351563 C 304.1762390136719 699.5880737304688 299.6580505371094 700.5001220703125 295.000244140625 700.5001220703125 Z"/><path class="h" d="M 295.000244140625 700.0001220703125 C 299.5907897949219 700.0001220703125 304.0434265136719 699.101318359375 308.2343444824219 697.3286743164063 C 312.2827758789063 695.6163330078125 315.9189758300781 693.1646728515625 319.0420532226563 690.0418701171875 C 322.164794921875 686.9189453125 324.6164245605469 683.28271484375 326.3288879394531 679.234130859375 C 328.1015014648438 675.0431518554688 329.0003356933594 670.5905151367188 329.0003356933594 666 L 329.0003356933594 35.00006103515625 C 329.0003356933594 30.40951538085938 328.1015014648438 25.95687866210938 326.3288879394531 21.76597023010254 C 324.6165161132813 17.71751594543457 322.1648864746094 14.08133411407471 319.0420532226563 10.95824241638184 C 315.9189758300781 7.835424900054932 312.2827758789063 5.383788108825684 308.2343444824219 3.671424627304077 C 304.0434265136719 1.898788332939148 299.5907897949219 0.9999701380729675 295.000244140625 0.9999701380729675 L 261.0000610351563 1.000941514968872 L 261.0000610351563 13.5846061706543 C 261.0000610351563 23.50988006591797 252.9252471923828 31.58469772338867 242.9999694824219 31.58469772338867 L 87.00033569335938 31.58469772338867 C 77.07505798339844 31.58469772338867 69.000244140625 23.50988006591797 69.000244140625 13.58469772338867 L 68.99931335449219 0.9999701380729675 L 35.00006103515625 0.9999701380729675 C 30.40969848632813 0.9999701380729675 25.95724296569824 1.898788332939148 21.76633453369141 3.671424627304077 C 17.71778869628906 5.3838791847229 14.08151626586914 7.83551549911499 10.9586067199707 10.95824241638184 C 7.835698127746582 14.08115196228027 5.383970737457275 17.7174243927002 3.67160701751709 21.76597023010254 C 1.898879885673523 25.95697021484375 0.9999707937240601 30.40960693359375 0.9999707937240601 35.00006103515625 L 0.9999707937240601 666 C 0.9999707937240601 670.5905151367188 1.898879885673523 675.0431518554688 3.67160701751709 679.234130859375 C 5.383970737457275 683.28271484375 7.835698127746582 686.9189453125 10.9586067199707 690.0418701171875 C 14.08151626586914 693.1646118164063 17.71778869628906 695.6162719726563 21.76633453369141 697.3286743164063 C 25.95724296569824 699.101318359375 30.40969848632813 700.0001220703125 35.00006103515625 700.0001220703125 L 295.000244140625 700.0001220703125 M 295.000244140625 701.0001220703125 L 35.00006103515625 701.0001220703125 C 30.27524375915527 701.0001220703125 25.69169807434082 700.0747680664063 21.37678909301758 698.2496948242188 C 17.20897102355957 696.48681640625 13.46587944030762 693.963134765625 10.25151634216309 690.7489624023438 C 7.037243366241455 687.53466796875 4.513516426086426 683.7916870117188 2.750607252120972 679.6237182617188 C 0.9254252910614014 675.3087768554688 -2.923029205703642e-05 670.7251586914063 -2.923029205703642e-05 666 L -2.923029205703642e-05 35.00006103515625 C -2.923029205703642e-05 30.27497100830078 0.9254252910614014 25.69133377075195 2.750607252120972 21.37642478942871 C 4.513516426086426 17.20842552185059 7.037243366241455 13.46542453765869 10.25151634216309 10.25115203857422 C 13.46587944030762 7.036970138549805 17.20897102355957 4.513333797454834 21.37678909301758 2.75042462348938 C 25.69169807434082 0.9253337383270264 30.27524375915527 -2.987393418152351e-05 35.00006103515625 -2.987393418152351e-05 L 69.99924468994141 -2.987393418152351e-05 L 70.000244140625 13.5846061706543 C 70.000244140625 22.95851516723633 77.62642669677734 30.58469772338867 87.00033569335938 30.58469772338867 L 242.9999694824219 30.58469772338867 C 252.3738861083984 30.58469772338867 260.0000610351563 22.95851516723633 260.0000610351563 13.5846061706543 L 260.0000610351563 0.0009701260714791715 L 295.000244140625 -2.987393418152351e-05 C 299.7252502441406 -2.987393418152351e-05 304.3089599609375 0.9253337383270264 308.6238708496094 2.75042462348938 C 312.7916870117188 4.513242721557617 316.5346984863281 7.036879062652588 319.7491455078125 10.25115203857422 C 322.9634399414063 13.46560668945313 325.487060546875 17.2086067199707 327.2498779296875 21.37642478942871 C 329.0749816894531 25.69133377075195 330.0003356933594 30.27506065368652 330.0003356933594 35.00006103515625 L 330.0003356933594 666 C 330.0003356933594 670.7249755859375 329.0749816894531 675.3087158203125 327.2498779296875 679.6237182617188 C 325.4869689941406 683.79150390625 322.9633483886719 687.5346069335938 319.7491455078125 690.7489624023438 C 316.5346984863281 693.9632568359375 312.7916870117188 696.4868774414063 308.6238708496094 698.2496948242188 C 304.3089599609375 700.0747680664063 299.7252502441406 701.0001220703125 295.000244140625 701.0001220703125 Z"/></g><g transform="translate(0 23)"><g class="a" transform="translate(1044 536)"><circle class="f" cx="61" cy="61" r="61"/><circle class="g" cx="61" cy="61" r="60.5"/></g><circle class="c" cx="36" cy="36" r="36" transform="translate(1117 512)"/><g transform="translate(53 -83)"><g class="d" transform="translate(1067 598)"><circle class="f" cx="32.5" cy="32.5" r="32.5"/><circle class="g" cx="32.5" cy="32.5" r="32.125"/></g><g class="d" transform="translate(1070 601)"><circle class="f" cx="29.5" cy="29.5" r="29.5"/><circle class="g" cx="29.5" cy="29.5" r="29.125"/></g><path class="e" d="M20.957,22.639,18.6,18.924H11.774v2.6a2.279,2.279,0,0,1-2.528,2.528A2.279,2.279,0,0,1,6.718,21.52v-2.6H2.556a2.556,2.556,0,0,1,0-5.113H6.718V12.351H2.556a2.556,2.556,0,1,1,0-5.112H6.718V3.248c0-2.176,1.056-3.073,3.3-3.073a2.9,2.9,0,0,1,2.624,1.376l3.525,5.687h5.722V2.7A2.279,2.279,0,0,1,24.413.176,2.278,2.278,0,0,1,26.941,2.7V7.239h3.431a2.556,2.556,0,0,1,0,5.112H26.941v1.461h3.431a2.556,2.556,0,0,1,0,5.113H26.941v1.859c0,2.08-.9,3.264-3.1,3.264C22.173,24.048,21.63,23.7,20.957,22.639Zm.928-8.828V12.351H19.332l.905,1.461Zm-6.519,0-.925-1.461H11.774v1.461Z" transform="translate(1082.972 617.018)"/></g><path class="a" d="M14.719,26.491a42.764,42.764,0,0,0,18.6,18.6l6.21-6.21a2.807,2.807,0,0,1,2.879-.678A32.2,32.2,0,0,0,52.49,39.815a2.831,2.831,0,0,1,2.823,2.823V52.49a2.831,2.831,0,0,1-2.823,2.823A47.986,47.986,0,0,1,4.5,7.323,2.831,2.831,0,0,1,7.323,4.5H17.2a2.831,2.831,0,0,1,2.823,2.823A32.07,32.07,0,0,0,21.635,17.4a2.833,2.833,0,0,1-.706,2.879l-6.21,6.21Z" transform="translate(1075.094 567.094)"/></g></g></svg>