<svg xmlns="http://www.w3.org/2000/svg" width="56" height="56" viewBox="0 0 56 56"><defs><style>.a{fill:#fff;}.a,.b{stroke:#eb3232;}.b,.d{fill:none;}.c{stroke:none;}</style></defs><g transform="translate(-911 -780)"><g class="a" transform="translate(911 780)"><circle class="c" cx="28" cy="28" r="28"/><circle class="d" cx="28" cy="28" r="27.5"/></g><path class="b" d="M10.3.66,7.879,5.573l-5.421.79A1.188,1.188,0,0,0,1.8,8.389l3.922,3.822L4.8,17.61a1.187,1.187,0,0,0,1.722,1.25l4.85-2.549,4.85,2.549a1.188,1.188,0,0,0,1.722-1.25l-.928-5.4,3.922-3.822a1.188,1.188,0,0,0-.657-2.026l-5.421-.79L12.432.66a1.188,1.188,0,0,0-2.13,0Z" transform="translate(927.499 798.21)"/></g></svg>